<svg width="439" height="199" viewBox="0 0 439 199" fill="none" xmlns="http://www.w3.org/2000/svg">
<path fill-rule="evenodd" clip-rule="evenodd" d="M179.977 0.388047C178.376 0.625047 176.914 1.76005 176.204 3.31905C175.466 4.93905 174.508 5.65804 173.568 5.29704C172.756 4.98604 172.091 5.19304 172.091 5.75804C172.091 6.32404 171.641 6.50805 171.091 6.16805C170.541 5.82805 170.091 6.07505 170.091 6.71605C170.091 7.35705 169.416 7.62305 168.591 7.30605C167.759 6.98705 167.091 7.27803 167.091 7.95903C167.091 8.63403 166.147 9.77706 164.993 10.4971C163.628 11.3501 163.071 12.4841 163.4 13.7421L163.906 15.676L161.498 16.2811C160.174 16.6131 159.091 17.256 159.091 17.709C159.091 18.162 158.191 18.819 157.091 19.168C155.985 19.519 155.091 20.681 155.091 21.767C155.091 22.847 154.303 24.029 153.341 24.393C150.757 25.372 148.875 27.51 149.586 28.66C149.929 29.215 149.507 29.668 148.65 29.668C147.793 29.668 147.091 30.236 147.091 30.931C147.091 31.625 146.079 32.638 144.841 33.181C143.603 33.724 142.535 34.731 142.466 35.418C142.397 36.106 142.285 37.128 142.216 37.689C142.147 38.251 140.966 39.2231 139.591 39.8501C138.216 40.4761 137.091 41.5921 137.091 42.3291C137.091 43.0651 136.658 43.668 136.128 43.668C134.46 43.668 127.091 51.987 127.091 53.869C127.091 54.859 126.416 55.668 125.591 55.668C124.766 55.668 124.091 56.0931 124.091 56.6131C124.091 57.1331 122.889 58.1461 121.42 58.8631C119.822 59.6441 118.281 61.575 117.586 63.668C116.947 65.593 115.525 67.622 114.426 68.176C113.328 68.73 112.616 69.7421 112.843 70.4251C113.071 71.1081 112.572 71.9301 111.735 72.2511C110.898 72.5721 109.924 74.151 109.571 75.76C109.218 77.368 108.117 79.119 107.125 79.65C106.133 80.181 105.036 81.752 104.687 83.142C104.338 84.531 103.611 85.668 103.072 85.668C102.532 85.668 102.091 86.09 102.091 86.606C102.091 87.122 100.74 89.024 99.088 90.832C97.437 92.64 95.077 96.2121 93.845 98.7691C92.511 101.536 91.095 103.223 90.347 102.936C89.656 102.671 89.091 103.163 89.091 104.03C89.091 105.113 88.545 105.4 87.341 104.949L85.591 104.294L86.833 105.824L88.075 107.354L85.583 108.49C84.212 109.114 83.091 110.31 83.091 111.147C83.091 111.983 82.69 112.668 82.199 112.668C81.709 112.668 81.025 113.793 80.68 115.168C80.284 116.746 79.347 117.668 78.138 117.668H76.224L75.907 120.418L75.591 123.168L73.591 123.23C70.22 123.334 68.091 124.78 68.091 126.966V129.05L66.713 127.166L65.335 125.281L63.883 126.734C63.084 127.532 62.567 128.632 62.734 129.177C63.076 130.294 56.847 133.668 54.443 133.668C53.462 133.668 53.092 134.228 53.453 135.168C53.769 135.993 53.592 136.668 53.06 136.668C52.527 136.668 52.077 136.106 52.059 135.418C52.04 134.655 51.51 134.849 50.699 135.918C49.968 136.88 48.858 137.668 48.231 137.668C47.604 137.668 47.091 138.193 47.091 138.835C47.091 139.476 46.821 139.732 46.492 139.402C45.623 138.534 38.362 142.52 37.708 144.225C37.403 145.018 36.231 145.668 35.103 145.668H33.052L33.505 148.168C33.755 149.543 33.538 150.668 33.025 150.668C32.511 150.668 32.091 150.218 32.091 149.668C32.091 149.118 31.655 148.668 31.122 148.668C30.59 148.668 30.426 149.377 30.758 150.243C31.142 151.244 30.857 151.747 29.977 151.625C27.556 151.286 24.533 151.802 25.841 152.33C27.728 153.092 27.34 154.668 25.265 154.668C23.39 154.668 19.091 158.551 19.091 160.245C19.091 160.767 18.08 161.638 16.845 162.181C15.61 162.724 14.011 164.405 13.291 165.918C12.571 167.431 11.331 168.668 10.536 168.668C9.74101 168.668 9.091 169.568 9.091 170.668C9.091 171.779 8.424 172.668 7.591 172.668C6.758 172.668 6.091 173.557 6.091 174.668C6.091 175.838 5.42401 176.668 4.48401 176.668C3.41101 176.668 3.08401 177.208 3.50101 178.295C3.84501 179.19 3.493 180.427 2.72 181.045C1.946 181.663 1.01801 183.856 0.657013 185.918L0 189.668H1.54599C3.00299 189.668 3.572 191.418 3.134 194.554C3.003 195.494 3.60899 195.766 5.01599 195.398C6.44399 195.024 7.091 195.329 7.091 196.375V197.895L10.038 197.462C11.659 197.225 12.796 197.337 12.563 197.713C12.331 198.088 13.93 198.395 16.116 198.395C18.302 198.395 20.091 198.007 20.091 197.532C20.091 197.057 20.991 196.668 22.091 196.668C23.261 196.668 24.091 196.001 24.091 195.061C24.091 194.094 24.649 193.668 25.492 193.992C26.338 194.316 27.104 193.728 27.422 192.509L27.951 190.489L30.013 191.143L32.075 191.798L33.243 189.233C33.886 187.822 34.984 186.668 35.684 186.668C36.384 186.668 37.235 185.791 37.575 184.719C37.949 183.54 38.766 182.99 39.642 183.326C40.439 183.632 41.091 183.384 41.091 182.775C41.091 182.166 40.614 181.668 40.032 181.668C39.45 181.668 39.225 181.26 39.533 180.762C39.841 180.264 40.898 180.066 41.881 180.323L43.669 180.791L45.04 177.298C45.902 175.102 47.28 173.586 48.751 173.217C50.875 172.684 51.573 171.198 51.19 168.023C51.114 167.393 52.41 166.404 54.071 165.825C55.732 165.246 57.091 164.299 57.091 163.72C57.091 163.141 57.766 162.668 58.591 162.668C59.45 162.668 60.091 161.767 60.091 160.561C60.091 159.099 60.55 158.63 61.591 159.03C62.416 159.346 63.101 159.057 63.113 158.387C63.158 155.948 66.74 152.568 69.63 152.239L72.591 151.902L72.418 150.035L72.244 148.168L74.162 150.522C75.217 151.817 75.829 153.283 75.522 153.779C75.215 154.276 75.668 154.952 76.528 155.282C77.387 155.612 78.091 156.704 78.091 157.708C78.091 158.712 78.962 159.81 80.028 160.148C81.093 160.486 82.105 161.754 82.278 162.965C82.474 164.343 83.197 165.069 84.208 164.905C85.097 164.76 86.389 165.323 87.08 166.155C87.771 166.987 88.956 167.668 89.713 167.668C90.471 167.668 91.091 168.343 91.091 169.168C91.091 169.993 91.766 170.668 92.591 170.668C93.416 170.668 94.098 170.106 94.106 169.418L94.122 168.168L94.995 169.546C95.475 170.304 96.368 170.615 96.979 170.237C97.613 169.845 98.091 170.22 98.091 171.109C98.091 172.984 100.38 173.129 103.105 171.427L105.091 170.187L106.93 171.336C108.002 172.005 109.339 172.133 110.133 171.642C110.882 171.179 111.931 171.069 112.463 171.398C113.009 171.735 113.169 171.313 112.83 170.43C112.064 168.435 113.06 167.397 114.551 168.635C116.096 169.917 120.091 168.775 120.091 167.051C120.091 166.291 120.766 165.668 121.591 165.668C122.416 165.668 123.091 165.188 123.091 164.601C123.091 164.014 123.927 163.799 124.95 164.123C126.023 164.464 127.343 164.07 128.072 163.191C128.767 162.353 129.794 161.668 130.353 161.668C130.913 161.668 131.984 160.88 132.733 159.918L134.096 158.168L133.486 159.918C132.542 162.629 133.856 161.983 135.519 158.918C136.34 157.405 137.029 156.668 137.051 157.279C137.074 157.921 138.148 158.189 139.591 157.913L142.091 157.435V159.051C142.091 159.941 142.793 160.668 143.65 160.668C144.62 160.668 144.933 161.14 144.478 161.918C144.076 162.606 144.649 162.38 145.75 161.416C146.852 160.452 148.088 159.998 148.497 160.407C148.906 160.817 149.685 160.358 150.227 159.389C150.77 158.419 151.666 157.905 152.219 158.247C152.772 158.589 153.782 158.105 154.464 157.173C155.234 156.119 157.579 155.301 160.655 155.012L165.607 154.548L166.87 157.858L168.132 161.168L169.13 159.668L170.127 158.168L172.609 160.974C174.319 162.907 175.091 163.296 175.091 162.224C175.091 161.368 175.589 160.668 176.198 160.668C176.807 160.668 177.051 161.329 176.742 162.136C176.432 162.943 176.609 163.87 177.135 164.195C177.661 164.52 178.091 164.058 178.091 163.168C178.091 162.278 178.473 161.786 178.941 162.075C180.53 163.058 189.091 163.474 189.091 162.569C189.091 162.073 190.202 161.668 191.56 161.668H194.028L193.453 160.168C193.091 159.226 193.463 158.668 194.453 158.668C195.407 158.668 195.812 158.105 195.481 157.241L194.933 155.814L196.956 156.343C198.292 156.692 199.861 155.989 201.58 154.27C203.011 152.839 204.551 151.668 205.002 151.668C205.452 151.668 207.007 150.735 208.456 149.595C209.905 148.456 211.147 147.781 211.216 148.095C211.285 148.41 211.405 149.005 211.483 149.418C211.561 149.831 212.504 151.181 213.58 152.418C215.702 154.86 217.703 155.333 218.302 153.534C218.55 152.791 219.243 152.963 220.314 154.034C221.213 154.933 222.543 155.661 223.27 155.653L224.591 155.637L223.091 154.668C221.38 153.563 221.539 153.466 225.399 153.254C226.943 153.169 228.623 152.44 229.133 151.634L230.06 150.168L230.076 151.918C230.097 154.4 231.587 154.086 233.478 151.2C234.367 149.843 235.672 148.954 236.378 149.225C237.084 149.495 238.681 148.767 239.928 147.605C241.428 146.208 242.769 145.748 243.893 146.244C244.827 146.657 246.004 147.034 246.508 147.082C247.012 147.129 247.609 147.843 247.834 148.668L248.243 150.168L247.292 148.811L246.341 147.454L245.588 148.673C245.167 149.353 245.443 150.277 246.213 150.764L247.591 151.637L246.341 151.653C245.654 151.661 245.091 152.118 245.091 152.668C245.091 154.069 247.343 153.463 248.806 151.668L250.027 150.168L250.075 152.168L250.122 154.168L250.985 152.805L251.849 151.442L252.273 152.713C252.823 154.365 257.091 155.028 257.091 153.462V152.268L258.291 153.468C259.924 155.101 261.091 154.976 261.091 153.168C261.091 152.343 261.766 151.668 262.591 151.668C263.416 151.668 264.103 151.106 264.119 150.418C264.134 149.731 265.667 148.043 267.527 146.668C269.386 145.293 270.742 143.998 270.539 143.791C269.625 142.856 273.227 137.783 274.467 138.259C275.604 138.695 277.142 135.912 277.004 133.668C276.987 133.393 278.012 132.925 279.282 132.627C280.711 132.292 281.717 131.215 281.921 129.801C282.136 128.306 282.741 127.704 283.671 128.06C284.452 128.36 285.091 128.169 285.091 127.637C285.091 127.104 285.766 126.668 286.591 126.668C287.944 126.668 288.535 125.481 288.209 123.418C288.144 123.005 288.541 122.668 289.091 122.668C289.641 122.668 290.091 123.104 290.091 123.637C290.091 124.169 290.766 124.346 291.591 124.03C292.416 123.713 293.091 122.836 293.091 122.08C293.091 121.324 294.252 120.415 295.671 120.059C297.09 119.703 298.636 118.456 299.107 117.29L299.964 115.168L300.028 116.918C300.096 118.808 303.537 119.374 304.591 117.668C305.787 115.733 308.06 116.698 308.71 119.418C309.071 120.931 309.81 122.731 310.351 123.418C311.015 124.26 310.97 124.668 310.213 124.668C309.596 124.668 309.091 124.218 309.091 123.668C309.091 123.118 308.641 122.668 308.091 122.668C307.541 122.668 307.091 124.229 307.091 126.137V129.605L305.479 128.986L303.866 128.368L304.629 131.768C305.049 133.638 305.386 135.843 305.378 136.668C305.37 137.493 305.764 138.678 306.253 139.301C306.826 140.031 306.51 140.703 305.367 141.189L303.591 141.943L306.091 142.625C307.514 143.014 308.942 142.847 309.407 142.238C309.871 141.628 309.989 142.028 309.679 143.168C309.381 144.268 309.576 145.843 310.114 146.668L311.091 148.168L311.964 146.815L312.837 145.462L314.742 146.481C317.258 147.827 325.356 147.373 325.861 145.858C326.079 145.203 325.68 144.668 324.974 144.668H323.691L324.933 143.426L326.174 142.185L327.152 143.676L328.129 145.168L329.47 143.418C330.208 142.456 331.276 141.668 331.843 141.668C332.41 141.668 333.165 140.511 333.519 139.097C333.874 137.683 334.711 136.714 335.378 136.945C336.617 137.373 340.492 133.839 341.373 131.478L341.861 130.168L343.55 132.168C344.479 133.268 344.952 133.602 344.602 132.911C344.251 132.22 344.639 131.395 345.464 131.078C346.29 130.762 346.733 129.898 346.449 129.158L345.933 127.814L348.089 128.378C349.274 128.688 350.649 130.005 351.143 131.305C351.637 132.605 352.503 133.668 353.066 133.668C353.63 133.668 353.979 134.231 353.841 134.918C353.69 135.673 354.482 136.074 355.841 135.93C357.078 135.799 358.091 136.127 358.091 136.66C358.091 137.193 359.859 137.458 362.021 137.25L365.95 136.872L365.426 138.52L364.902 140.168L365.956 138.674C366.595 137.77 368.184 137.304 369.988 137.493C371.625 137.665 373.956 137.275 375.166 136.628C376.377 135.98 378.713 135.356 380.358 135.243C382.003 135.129 383.952 134.211 384.689 133.203C385.426 132.195 387.28 131.283 388.81 131.176C393.589 130.841 393.844 130.721 394.414 128.54L394.971 126.412L397.531 126.901C398.939 127.17 400.091 127.003 400.091 126.529C400.091 126.056 401.104 125.658 402.341 125.646C403.578 125.634 405.716 124.744 407.091 123.668C408.466 122.592 409.961 121.702 410.412 121.69C410.864 121.678 411.909 120.993 412.734 120.168C413.559 119.343 415.375 118.668 416.769 118.668C418.419 118.668 419.133 118.221 418.814 117.387C418.543 116.683 419.375 115.61 420.662 115.003L423.001 113.899L423.467 115.033C423.723 115.657 423.969 115.429 424.012 114.525C424.105 112.59 426.444 111.482 428.651 112.329C429.692 112.729 430.395 112.221 430.767 110.798C431.148 109.342 432.115 108.668 433.821 108.668H436.318L435.883 105.707L435.449 102.746L437.02 102.313L438.591 101.88L436.341 101.157C435.06 100.746 434.091 99.624 434.091 98.551C434.091 97.516 433.683 96.668 433.185 96.668C432.686 96.668 432.506 95.798 432.784 94.736L433.289 92.804L431.175 93.356L429.061 93.9091L429.746 92.039L430.43 90.168L428.324 92.0161C427.165 93.0321 425.739 93.568 425.154 93.207C424.566 92.843 424.091 93.294 424.091 94.216C424.091 95.317 423.56 95.678 422.526 95.281L420.96 94.681L421.633 96.8001C422.076 98.1961 421.937 98.691 421.226 98.252C420.633 97.885 419.086 98.28 417.789 99.13C416.492 99.98 415.141 100.384 414.785 100.029C414.43 99.6741 413.501 99.9131 412.72 100.561C411.94 101.208 410.692 101.61 409.946 101.453C409.201 101.296 408.672 101.637 408.772 102.21C408.871 102.784 407.971 103.325 406.772 103.414C405.572 103.502 403.622 104.786 402.438 106.266C400.976 108.093 399.738 108.746 398.577 108.301L396.868 107.645L397.417 109.074C398.079 110.799 396.1 111.668 391.509 111.668C389.629 111.668 388.091 112.118 388.091 112.668C388.091 113.218 386.998 113.668 385.662 113.668C384.327 113.668 382.559 114.343 381.735 115.167C380.91 115.991 379.191 116.779 377.913 116.917C376.636 117.055 374.768 117.91 373.762 118.816C372.756 119.723 370.634 120.655 369.047 120.888L366.162 121.311L365.167 118.455C364.54 116.657 364.529 115.821 365.138 116.197C365.67 116.526 366.36 115.979 366.671 114.981C366.982 113.984 367.654 112.387 368.164 111.432C368.674 110.477 369.091 109.014 369.091 108.182C369.091 107.349 369.596 106.668 370.213 106.668C370.989 106.668 370.951 106.204 370.091 105.168L368.846 103.668H370.135C370.844 103.668 371.087 103.331 370.674 102.918C370.262 102.505 369.399 102.168 368.758 102.168C368.116 102.168 367.542 101.195 367.482 100.006C367.287 96.1491 366.288 94.656 364.379 95.372L362.591 96.0421L363.853 94.4881L365.116 92.9331L363.853 91.945C363.159 91.402 361.612 90.718 360.416 90.426L358.241 89.8941L358.747 91.531L359.254 93.168L357.673 91.2271C356.803 90.1591 356.091 89.687 356.091 90.177C356.091 90.667 355.584 90.5611 354.964 89.9411C354.274 89.2511 353.015 89.127 351.714 89.621C350.546 90.065 349.268 90.37 348.873 90.298C348.479 90.227 347.236 90.956 346.112 91.918C344.988 92.88 343.398 93.668 342.58 93.668C341.761 93.668 341.091 94.119 341.091 94.671C341.091 95.223 339.291 96.4541 337.091 97.4071C334.891 98.3601 333.091 99.6141 333.091 100.193C333.091 100.773 331.86 101.229 330.354 101.207C328.849 101.186 327.612 101.693 327.604 102.335C327.577 104.683 326.091 104.926 326.076 102.585L326.06 100.168L325.177 101.564C324.061 103.326 320.937 102.233 321.665 100.335C321.963 99.56 321.505 98.657 320.648 98.328C319.792 98 319.091 98.1671 319.091 98.6991C319.091 99.2321 318.641 99.668 318.091 99.668C317.541 99.668 317.091 98.993 317.091 98.168C317.091 96.351 317.073 96.351 309.617 98.104C306.332 98.877 303.312 99.3051 302.908 99.0551C302.072 98.5381 297.953 100.661 296.883 102.16C296.43 102.793 295.725 102.702 294.933 101.91L293.691 100.668H294.891C295.551 100.668 296.091 99.9451 296.091 99.0611C296.091 98.0471 295.54 97.6651 294.598 98.0271C293.768 98.3451 292.222 97.652 291.116 96.465L289.127 94.33L290.351 92.8551L291.575 91.38L289.333 92.091C287.815 92.573 287.091 92.393 287.091 91.535V90.268L285.891 91.468C285.231 92.128 283.881 92.668 282.891 92.668C281.901 92.668 281.077 93.231 281.059 93.918C281.042 94.606 280.306 96.068 279.425 97.168L277.822 99.168L278.425 97.418L279.028 95.668H277.279C276.268 95.668 275.069 96.8891 274.438 98.5611C273.674 100.584 272.427 101.655 270.288 102.125C266.806 102.89 264.591 105.05 265.606 106.692C266.002 107.333 265.404 108.035 264.192 108.352C263.036 108.654 262.091 109.524 262.091 110.285C262.091 111.045 261.754 111.706 261.341 111.751C260.928 111.797 259.522 111.951 258.217 112.093C256.911 112.236 254.613 113.76 253.111 115.48C251.609 117.2 249.163 119.07 247.676 119.636C245.945 120.294 245.225 121.115 245.678 121.916L246.384 123.168L245.038 121.918C243.207 120.219 242.286 120.348 242.452 122.28C242.607 124.081 239.571 126.481 238.496 125.407C238.117 125.027 238.384 124.02 239.091 123.168C239.798 122.316 240.086 121.33 239.731 120.975C239.377 120.62 239.817 119.523 240.71 118.536C241.616 117.536 242.054 116.014 241.701 115.094L241.068 113.445L242.691 114.068L244.314 114.691L243.702 113.098C243.366 112.221 243.091 111.33 243.091 111.118C243.091 110.905 242.41 110.992 241.578 111.311C240.53 111.714 239.732 110.936 238.98 108.78C238.384 107.068 237.238 105.668 236.434 105.668C235.631 105.668 235.251 106.118 235.591 106.668C235.931 107.218 235.732 107.668 235.15 107.668C234.568 107.668 234.091 106.993 234.091 106.168C234.091 105.343 233.471 104.668 232.713 104.668C231.956 104.668 230.776 105.343 230.091 106.168C229.406 106.993 228.212 107.668 227.437 107.668C226.662 107.668 225.769 108.343 225.453 109.168C225.136 109.993 224.25 110.668 223.484 110.668C222.718 110.668 222.091 111.616 222.091 112.775C222.091 114.102 221.606 114.696 220.779 114.379C220.058 114.102 218.596 115.177 217.529 116.769C216.463 118.36 214.998 119.664 214.274 119.665C213.409 119.667 213.176 120.36 213.594 121.679L214.233 123.69L211.107 124.315C208.925 124.751 208.149 125.377 208.537 126.388C208.862 127.234 208.599 127.671 207.904 127.439C206.624 127.012 203.091 130.067 203.091 131.601C203.091 132.114 202.263 132.796 201.251 133.117C200.239 133.438 198.816 134.813 198.089 136.172L196.766 138.643L195.429 137.533L194.091 136.423V137.972C194.091 139.666 188.385 142.968 186.97 142.093C186.486 141.794 186.091 142.027 186.091 142.609C186.091 143.191 184.966 143.668 183.591 143.668H181.091L183.017 141.742C184.247 140.512 185.719 140.019 187.092 140.378L189.241 140.941L188.916 139.121C188.693 137.87 189.373 137.111 191.091 136.693C192.64 136.317 193.71 135.264 193.904 133.924C194.077 132.735 195.01 131.511 195.978 131.204C196.947 130.896 199.056 129.269 200.665 127.588L203.591 124.531L201.841 123.55C199.707 122.353 199.496 120.226 201.591 121.03C202.416 121.346 203.091 121.169 203.091 120.637C203.091 120.104 202.416 119.668 201.591 119.668C200.766 119.668 200.091 118.938 200.091 118.046V116.423L198.749 117.537C197.069 118.931 195.749 117.785 197.125 116.127L198.142 114.902L196.526 114.282C195.638 113.941 194.532 113.895 194.07 114.181C193.607 114.467 192.966 114.274 192.644 113.753C192.322 113.232 192.516 112.524 193.075 112.178C194.841 111.087 194.177 109.668 191.9 109.668H189.709L191.65 108.2C192.717 107.392 193.043 106.717 192.372 106.7C191.702 106.682 191.413 105.993 191.729 105.168C192.046 104.343 191.807 103.668 191.198 103.668C190.589 103.668 190.091 104.295 190.091 105.061C190.091 105.827 189.416 106.713 188.591 107.03C187.766 107.346 187.091 107.207 187.091 106.72C187.091 106.233 187.476 105.685 187.946 105.501C188.416 105.318 187.897 104.268 186.793 103.168L184.784 101.168L185.44 103.168L186.096 105.168L184.843 103.616C183.414 101.844 178.955 101.519 177.856 103.107C177.369 103.811 177.116 103.748 177.106 102.918C177.085 101.169 175.986 101.406 173.144 103.771L170.698 105.807L172.144 106.782L173.591 107.757L171.591 107.598C168.255 107.331 167.511 107.572 163.701 110.158C161.683 111.528 159.52 112.54 158.894 112.408C158.268 112.276 157.296 113.702 156.733 115.577C156.045 117.872 154.814 119.324 152.967 120.021C151.457 120.591 150.007 121.882 149.743 122.891C149.479 123.9 148.673 124.6 147.951 124.447C147.229 124.293 146.484 125.181 146.295 126.418C146.106 127.655 145.353 128.668 144.62 128.668C143.888 128.668 142.359 130.243 141.224 132.168C140.088 134.093 138.645 135.668 138.018 135.668C137.39 135.668 137.136 136.343 137.453 137.168C137.829 138.148 137.423 138.668 136.282 138.668C135.322 138.668 133.253 140.13 131.685 141.918C130.116 143.706 128.553 145.205 128.212 145.25C125.083 145.66 121.093 147.386 118.727 149.351C117.105 150.699 115.13 151.498 114.172 151.194C113.241 150.898 111.571 151.504 110.46 152.539L108.44 154.421L103.767 154.295L99.093 154.168L99.092 152.718L99.091 151.268L97.891 152.468C96.155 154.204 95.091 153.944 95.091 151.785C95.091 150.742 94.198 149.668 93.091 149.378C91.062 148.848 90.257 146.668 92.091 146.668C92.641 146.668 93.091 146.218 93.091 145.668C93.091 145.118 92.58 144.668 91.956 144.668C91.331 144.668 89.737 143.499 88.414 142.071L86.007 139.474L87.299 137.908L88.591 136.343L87.299 135.908L86.008 135.474L87.299 133.884L88.591 132.294L86.591 133.04L84.591 133.786L85.891 132.477C86.606 131.757 87.727 131.168 88.381 131.168C89.036 131.168 89.801 129.86 90.081 128.262C90.416 126.351 91.27 125.257 92.573 125.067C93.663 124.907 94.713 124.302 94.906 123.722C95.099 123.143 95.895 122.668 96.674 122.668C97.454 122.668 98.091 122.218 98.091 121.668C98.091 121.118 98.654 120.781 99.341 120.918C100.029 121.056 100.637 120.268 100.693 119.168C100.909 114.935 101.124 114.466 102.591 115.03C104.744 115.856 107.054 114.736 106.449 113.158L105.933 111.814L108.012 112.358C109.155 112.657 110.091 112.451 110.091 111.901C110.091 111.351 110.991 110.666 112.091 110.378C113.191 110.091 114.091 109.191 114.091 108.378C114.091 107.566 114.991 106.666 116.091 106.378C117.191 106.091 118.091 105.152 118.091 104.293C118.091 103.36 118.658 102.949 119.501 103.272C120.348 103.597 121.173 102.986 121.568 101.74C121.93 100.601 122.87 99.668 123.658 99.668C124.446 99.668 125.091 99.1701 125.091 98.5611C125.091 97.9521 125.795 97.7241 126.656 98.0551L128.222 98.655L127.626 96.778L127.03 94.9L129.416 94.301C130.729 93.972 132.999 91.8951 134.461 89.6851C135.923 87.4761 137.843 85.668 138.728 85.668H140.336L138.963 84.005L137.591 82.343L139.051 82.825C140.574 83.329 146.091 78.3931 146.091 76.5271C146.091 75.9371 146.766 75.713 147.591 76.03C148.416 76.346 149.091 76.174 149.091 75.648C149.091 74.388 152.299 70.668 153.385 70.668C153.852 70.668 154.921 69.98 155.762 69.14L157.29 67.612L156.068 66.14L154.846 64.668L156.219 64.5161C156.973 64.4321 158.266 64.3191 159.091 64.2641C159.916 64.2101 160.591 63.6211 160.591 62.9561C160.591 62.2911 162.279 60.1551 164.341 58.2091C166.404 56.2641 168.091 53.97 168.091 53.111C168.091 52.253 168.544 51.83 169.099 52.173C170.372 52.96 173.216 50.195 172.859 48.517C172.712 47.825 173.154 47.238 173.841 47.213C174.529 47.188 175.061 46.7961 175.025 46.3421C174.989 45.8881 175.808 44.7631 176.845 43.8421C179.207 41.7441 180.425 38.668 178.893 38.668C178.269 38.668 178.095 38.331 178.508 37.918C179.221 37.205 179.614 37.085 182.198 36.793C182.807 36.724 183.055 36.0161 182.749 35.2191C182.413 34.3431 182.963 33.5261 184.142 33.1521C186.287 32.4711 186.832 29.7061 184.841 29.6051C184.154 29.5701 184.603 29.134 185.841 28.637C187.14 28.115 188.091 26.873 188.091 25.7C188.091 24.535 188.75 23.668 189.635 23.668C190.484 23.668 191.074 23.106 190.946 22.418C190.542 20.247 192.216 14.627 193.103 15.176C193.571 15.464 194.216 15.274 194.538 14.753C194.86 14.232 194.675 13.5291 194.128 13.1911C193.488 12.7951 193.571 11.831 194.361 10.491L195.591 8.40706L194.299 7.94005L193.008 7.47405L194.135 6.11504C195.456 4.52304 194.593 2.66805 192.532 2.66805C191.739 2.66805 191.091 2.09106 191.091 1.38506C191.091 0.0900561 185.422 -0.418953 179.977 0.388047ZM129.091 51.668C129.091 52.218 129.541 52.668 130.091 52.668C130.641 52.668 131.091 52.218 131.091 51.668C131.091 51.118 130.641 50.668 130.091 50.668C129.541 50.668 129.091 51.118 129.091 51.668ZM429.091 95.668C429.091 96.218 429.568 96.668 430.15 96.668C430.732 96.668 430.931 96.218 430.591 95.668C430.251 95.118 429.775 94.668 429.532 94.668C429.289 94.668 429.091 95.118 429.091 95.668ZM180.591 105.668C180.931 106.218 181.407 106.668 181.65 106.668C181.893 106.668 182.091 106.218 182.091 105.668C182.091 105.118 181.614 104.668 181.032 104.668C180.45 104.668 180.251 105.118 180.591 105.668ZM433.591 106.668C433.931 107.218 434.407 107.668 434.65 107.668C434.893 107.668 435.091 107.218 435.091 106.668C435.091 106.118 434.614 105.668 434.032 105.668C433.45 105.668 433.251 106.118 433.591 106.668ZM167.091 109.727C167.091 110.309 167.541 110.508 168.091 110.168C168.641 109.828 169.091 109.352 169.091 109.109C169.091 108.866 168.641 108.668 168.091 108.668C167.541 108.668 167.091 109.145 167.091 109.727ZM309.591 118.668C309.931 119.218 310.407 119.668 310.65 119.668C310.893 119.668 311.091 119.218 311.091 118.668C311.091 118.118 310.614 117.668 310.032 117.668C309.45 117.668 309.251 118.118 309.591 118.668ZM247.091 121.668C247.091 122.218 247.568 122.668 248.15 122.668C248.732 122.668 248.931 122.218 248.591 121.668C248.251 121.118 247.775 120.668 247.532 120.668C247.289 120.668 247.091 121.118 247.091 121.668ZM64.091 129.227C64.091 130.084 64.548 130.503 65.107 130.158C65.666 129.812 65.865 129.111 65.548 128.599C64.691 127.212 64.091 127.47 64.091 129.227ZM354.091 130.727C354.091 131.309 354.541 131.508 355.091 131.168C355.641 130.828 356.091 130.352 356.091 130.109C356.091 129.866 355.641 129.668 355.091 129.668C354.541 129.668 354.091 130.145 354.091 130.727ZM185.591 136.668C185.251 137.218 185.45 137.668 186.032 137.668C186.614 137.668 187.091 137.218 187.091 136.668C187.091 136.118 186.893 135.668 186.65 135.668C186.407 135.668 185.931 136.118 185.591 136.668ZM244.091 143.668C244.091 144.218 244.541 144.668 245.091 144.668C245.641 144.668 246.091 144.218 246.091 143.668C246.091 143.118 245.641 142.668 245.091 142.668C244.541 142.668 244.091 143.118 244.091 143.668ZM265.091 144.668C265.091 145.218 265.541 145.668 266.091 145.668C266.641 145.668 267.091 145.218 267.091 144.668C267.091 144.118 266.641 143.668 266.091 143.668C265.541 143.668 265.091 144.118 265.091 144.668ZM106.591 169.668C106.931 170.218 107.97 170.661 108.9 170.653L110.591 170.637L109.091 169.668C107.133 168.402 105.809 168.402 106.591 169.668ZM34.591 183.668C34.251 184.218 34.45 184.668 35.032 184.668C35.614 184.668 36.091 184.218 36.091 183.668C36.091 183.118 35.893 182.668 35.65 182.668C35.407 182.668 34.931 183.118 34.591 183.668Z" fill="black"/>
</svg>
